<svg id="Capa_1" data-name="Capa 1" xmlns="http://www.w3.org/2000/svg" viewBox="0 0 109.3 24"><defs><style>.cls-1{fill:#fff;}</style></defs><title>logo_satrack</title><path class="cls-1" d="M83.82,6.3H79.47a6.89,6.89,0,1,0,0,13.78h4.35a1.69,1.69,0,0,0,1.69-1.69V8A1.69,1.69,0,0,0,83.82,6.3ZM79.47,16.71a3.52,3.52,0,1,1,0-7h2.66v7H79.47Z"/><path class="cls-1" d="M53,6.3H48.62a6.89,6.89,0,0,0,0,13.78H53a1.69,1.69,0,0,0,1.69-1.69V8A1.69,1.69,0,0,0,53,6.3ZM48.62,16.71a3.52,3.52,0,0,1,0-7h2.66v7H48.62Z"/><path class="cls-1" d="M105.73,11.77l3-2.49a1.69,1.69,0,0,0-2.16-2.59l-4.77,4V5.6a1.69,1.69,0,0,0-3.37,0V18.4a1.69,1.69,0,0,0,3.37,0V14.47h0.07c2.88,0,4.09.54,4.09,3.92a1.69,1.69,0,0,0,3.37,0C109.32,15,108.14,12.79,105.73,11.77Z"/><path class="cls-1" d="M61.76,6.52H59.49V5.6a1.69,1.69,0,0,0-3.37,0v9.55a4.59,4.59,0,0,0,4.55,4.93,1.69,1.69,0,0,0,0-3.37c-0.35,0-1.18-.15-1.18-1.56V9.44h2.28A1.46,1.46,0,1,0,61.76,6.52Z"/><path class="cls-1" d="M36.68,11.25H35.16a1,1,0,0,1,0-2.09h3.38a1.69,1.69,0,1,0,0-3.37H35.16a4.41,4.41,0,0,0,0,8.83h1.51a1,1,0,1,1,0,2.09H32.43a1.69,1.69,0,1,0,0,3.37h4.24A4.41,4.41,0,1,0,36.68,11.25Z"/><path class="cls-1" d="M73.06,8A1.69,1.69,0,0,0,71.38,6.3a6.84,6.84,0,0,0-3.65,1.05A1.68,1.68,0,0,0,64.48,8V18.4a1.69,1.69,0,0,0,3.37,0V13.19a3.52,3.52,0,0,1,3.52-3.52A1.69,1.69,0,0,0,73.06,8Z"/><path class="cls-1" d="M95.81,16.71H93.33a3.52,3.52,0,0,1,0-7h2.48a1.68,1.68,0,0,0,0-3.36H93.33a6.89,6.89,0,1,0,0,13.78h2.48A1.69,1.69,0,0,0,95.81,16.71Z"/><path class="cls-1" d="M23.51,8.61l0.25-.72c0.08-.23.19-0.54,0.22-0.69a1.26,1.26,0,0,0,0-1,0.8,0.8,0,0,0-.61-0.31H23.16l-0.44,0-0.47,0a0.66,0.66,0,0,0-.1-0.27A12,12,0,0,0,12.63,0H12a12,12,0,1,0,1.26,23.93h0.13A12,12,0,0,0,23.65,8.87,0.66,0.66,0,0,0,23.51,8.61ZM1.08,14.78A11.34,11.34,0,0,1,12,.67h0.57A11.32,11.32,0,0,1,21.5,5.86l-5-.58A2.72,2.72,0,0,0,14,2.47H11.33V13.63a0.28,0.28,0,0,1,0,.09v0l0,0.05h0l-0.06.05h0l-0.06,0h0l-0.08,0h0l-0.09,0H10.57C8.09,13.69,6,11.51,6,10.29v-1H6a0.13,0.13,0,0,0-.14-0.14,0.13,0.13,0,0,0-.14.16,5.07,5.07,0,0,1-1.07,2.3,14.09,14.09,0,0,1-1.2,1.28h0l-2.41,2v0ZM15,5.32a0.77,0.77,0,0,1-.69,1.38A0.77,0.77,0,0,1,15,5.32Zm-1.78,12q0-.18,0-0.34s0-.07,0-0.1,0-.15,0-0.22V16.53c0-.06,0-0.12,0-0.18V16.23l0-.16,0-.12,0-.15,0-.11,0-.13,0-.11,0-.12,0-.1,0-.11,0-.09,0-.1,0-.09,0.05-.1,0-.08,0.06-.09,0.05-.07L14,14.42,14,14.35l0.07-.07,0.06-.06,0.07-.07,0.06-.05L14.35,14l0.07,0,0.08-.05,0.07,0,0.09,0,0.08,0,0.09,0,0.08,0,0.1,0,0.09,0,0.1,0,0.09,0,0.11,0,0.09,0,0.12,0,0.1,0,0.12,0h0.1l0.13,0H16.4l0.25,0h2l0.14,0,0.14,0,0.14,0,0.14,0,0.13,0,0.14,0,0.12,0,0.13-.05,0.11-.05L20,13l0.1-.05,0.14-.07,0.09-.05,0.14-.09,0.07-.05,0.21-.15,0.14-.11,0.05,0L21,12.23,21.26,12l0.14-.16,0.16-.19h0A8.9,8.9,0,0,0,23,9.18a11.34,11.34,0,0,1-9.71,14.08v-6Zm9.87-10.8h0.16l0.13,0a1.88,1.88,0,0,1-.08.49c0,0.1-.1.34-0.19,0.58a12,12,0,0,0-.52-1.14h0Zm-21.93,9a0.66,0.66,0,0,0,.32-0.14l2.1-1.71a8.62,8.62,0,0,0,8.46,7l0.51,0v2.67h0s0,0,0,0l-0.61,0A11.34,11.34,0,0,1,1.18,15.47Z"/></svg>