<svg xmlns="http://www.w3.org/2000/svg" width="40" height="40" viewBox="0 0 40 40">
    <g fill="none" fill-rule="evenodd">
        <g>
            <rect width="40" height="40" fill="#8B99B9" fill-opacity=".1" rx="14"/>
            <path d="M8 8h24v24H8z"/>
        </g>
        <path fill="#8B99B9" fill-rule="nonzero" d="M28.276 26.063l-1.93-3.281v-4.58c0-3.554-2.663-6.425-5.992-6.767v-.751c0-.41-.266-.684-.666-.684s-.666.273-.666.684v1.367c0 .41.267.683.666.683 2.93 0 5.326 2.46 5.326 5.468v4.785c0 .137 0 .273.067.342l1.398 2.392H12.83l1.398-2.392c.066-.137.066-.205.066-.342v-4.785c0-2.119 1.199-4.032 3.063-4.921.333-.137.466-.547.333-.889-.133-.341-.533-.478-.866-.341-2.33 1.093-3.794 3.554-3.794 6.151v4.58l-1.931 3.28a.635.635 0 0 0 0 .684.695.695 0 0 0 .599.342h5.393a2.67 2.67 0 0 0 2.596 2.05c1.265 0 2.264-.888 2.597-2.05h5.392a.695.695 0 0 0 .6-.342 1.195 1.195 0 0 0 0-.683zm-8.613 2.119c-.396 0-.793-.383-.962-.957h1.925c-.17.574-.567.957-.963.957z"/>
    </g>
</svg>
