<svg xmlns="http://www.w3.org/2000/svg" width="97" height="67" viewBox="0 0 97 67">
    <defs>
        <linearGradient id="prefix__a" x1="50%" x2="85.033%" y1="71.233%" y2="5.116%">
            <stop offset="0%" stop-color="#FFF"/>
            <stop offset="100%" stop-color="#4080F8"/>
        </linearGradient>
    </defs>
    <g fill="none" fill-rule="evenodd">
        <rect width="64.444" height="1.237" x="32.556" y="65.763" fill="#DAE2ED" fill-rule="nonzero" rx=".619"/>
        <rect width="23.547" height="1.237" x=".419" y="65.763" fill="#DAE2ED" fill-rule="nonzero" rx=".619"/>
        <g>
            <path stroke="#DAE2ED" stroke-width="1.5" d="M86.28.927c4.062 0 7.368 3.3 7.368 7.354 0 4.055-3.306 7.354-7.367 7.354-.266 0-.53-.014-.792-.04-.766 3.34-3.558 5.915-7.01 6.364.992.922 1.611 2.237 1.611 3.69 0 2.788-2.271 5.054-5.061 5.054-2.791 0-5.061-2.266-5.061-5.053 0-2.163 1.368-4.014 3.286-4.734-2.478-1.43-4.149-4.11-4.149-7.172 0-4.565 3.72-8.282 8.296-8.282.668 0 1.335.082 1.98.24 1.05-2.799 3.758-4.775 6.9-4.775zm-10.94 39.07c1.888 0 3.422 1.532 3.422 3.415 0 1.887-1.534 3.419-3.422 3.419-1.886 0-3.421-1.532-3.421-3.419 0-1.883 1.535-3.415 3.421-3.415z" transform="translate(1.658)"/>
            <path fill="#B7C6DF" fill-rule="nonzero" d="M67.929 43.85l5.069-9.855c.272-.53.054-1.176-.49-1.442-.543-.267-1.204-.052-1.477.48l-5.304 10.31 2.202.507z" transform="translate(1.658)"/>
            <path stroke="#FFF" stroke-width=".25" d="M67.929 43.85l5.069-9.855c.272-.53.054-1.176-.49-1.442-.543-.267-1.204-.052-1.477.48l-5.304 10.31 2.202.507z" transform="translate(1.658)"/>
            <path fill="#99ACCC" fill-rule="nonzero" d="M69.255 63.683c-2.89 0-5.24-2.346-5.24-5.233 0-2.886 2.35-5.232 5.24-5.232s5.241 2.346 5.241 5.232c0 2.887-2.35 5.233-5.24 5.233zm-31.007-5.574H23.533c-.178-3.956-3.45-7.12-7.455-7.12-4 0-7.265 3.153-7.456 7.1-1.473-.076-2.725-.953-3.338-2.21h.98c.617 0 1.116-.497 1.116-1.113 0-.617-.5-1.114-1.115-1.114H4.877V28.435c0-1.937 1.575-3.51 3.514-3.51H38.676c1.94 0 3.515 1.573 3.515 3.51v29.674H38.248zm-22.17 5.574c-2.89 0-5.242-2.346-5.242-5.233 0-2.886 2.351-5.232 5.242-5.232 2.888 0 5.24 2.346 5.24 5.232 0 2.887-2.352 5.233-5.24 5.233zm62.419-14.907c-.068-.168-.18-.306-.317-.422-2.152-2.868-5.574-4.736-9.432-4.736h-1.49l-9.909-9.291c-2.045-1.914-4.714-2.97-7.519-2.97h-5.164v2.229h5.164c2.235 0 4.361.84 5.99 2.367l10.232 9.592c.207.195.48.302.763.302h1.933c2.34 0 4.48.847 6.145 2.242-.584.039-1.05.511-1.05 1.103 0 .616.5 1.114 1.117 1.114h1.864c.934 1.475 1.486 3.216 1.486 5.088 0 1.098-.65 2.044-1.61 2.471-.301-3.842-3.521-6.877-7.445-6.877-4.005 0-7.276 3.165-7.457 7.12H44.424V28.436c0-3.165-2.577-5.74-5.748-5.74H8.391c-3.17 0-5.748 2.575-5.748 5.74v25.734c0 .161.013.32.025.477-.005.04-.025.078-.025.12 0 .158.035.308.095.444.498 2.907 3.033 5.128 6.085 5.128h.033c.839 3.202 3.755 5.574 7.222 5.574 3.467 0 6.38-2.372 7.222-5.574h38.734c.841 3.202 3.755 5.574 7.221 5.574 3.501 0 6.439-2.417 7.248-5.666 2.345-.438 4.039-2.455 4.039-4.852 0-2.453-.756-4.73-2.045-6.618z" transform="translate(1.658)"/>
            <path stroke="#FFF" stroke-width=".75" d="M69.255 63.683c-2.89 0-5.24-2.346-5.24-5.233 0-2.886 2.35-5.232 5.24-5.232s5.241 2.346 5.241 5.232c0 2.887-2.35 5.233-5.24 5.233zm-31.007-5.574H23.533c-.178-3.956-3.45-7.12-7.455-7.12-4 0-7.265 3.153-7.456 7.1-1.473-.076-2.725-.953-3.338-2.21h.98c.617 0 1.116-.497 1.116-1.113 0-.617-.5-1.114-1.115-1.114H4.877V28.435c0-1.937 1.575-3.51 3.514-3.51H38.676c1.94 0 3.515 1.573 3.515 3.51v29.674H38.248zm-22.17 5.574c-2.89 0-5.242-2.346-5.242-5.233 0-2.886 2.351-5.232 5.242-5.232 2.888 0 5.24 2.346 5.24 5.232 0 2.887-2.352 5.233-5.24 5.233zm62.419-14.907c-.068-.168-.18-.306-.317-.422-2.152-2.868-5.574-4.736-9.432-4.736h-1.49l-9.909-9.291c-2.045-1.914-4.714-2.97-7.519-2.97h-5.164v2.229h5.164c2.235 0 4.361.84 5.99 2.367l10.232 9.592c.207.195.48.302.763.302h1.933c2.34 0 4.48.847 6.145 2.242-.584.039-1.05.511-1.05 1.103 0 .616.5 1.114 1.117 1.114h1.864c.934 1.475 1.486 3.216 1.486 5.088 0 1.098-.65 2.044-1.61 2.471-.301-3.842-3.521-6.877-7.445-6.877-4.005 0-7.276 3.165-7.457 7.12H44.424V28.436c0-3.165-2.577-5.74-5.748-5.74H8.391c-3.17 0-5.748 2.575-5.748 5.74v25.734c0 .161.013.32.025.477-.005.04-.025.078-.025.12 0 .158.035.308.095.444.498 2.907 3.033 5.128 6.085 5.128h.033c.839 3.202 3.755 5.574 7.222 5.574 3.467 0 6.38-2.372 7.222-5.574h38.734c.841 3.202 3.755 5.574 7.221 5.574 3.501 0 6.439-2.417 7.248-5.666 2.345-.438 4.039-2.455 4.039-4.852 0-2.453-.756-4.73-2.045-6.618z" transform="translate(1.658)"/>
            <path fill="#B7C6DF" fill-rule="nonzero" d="M59.329 50.307H46.042c-.617 0-1.117.497-1.117 1.113 0 .617.5 1.116 1.117 1.116h13.287c.616 0 1.116-.5 1.116-1.116 0-.616-.5-1.113-1.116-1.113" transform="translate(1.658)"/>
            <path stroke="#FFF" stroke-width=".5" d="M59.329 50.307H46.042c-.617 0-1.117.497-1.117 1.113 0 .617.5 1.116 1.117 1.116h13.287c.616 0 1.116-.5 1.116-1.116 0-.616-.5-1.113-1.116-1.113z" transform="translate(1.658)"/>
            <path fill="#B7C6DF" fill-rule="nonzero" d="M14.713 49.07H1.427c-.618 0-1.117.497-1.117 1.113S.81 51.3 1.427 51.3h13.286c.616 0 1.117-.5 1.117-1.116 0-.616-.5-1.113-1.117-1.113" transform="translate(1.658)"/>
            <path stroke="#FFF" stroke-width=".5" d="M14.713 49.07H1.427c-.618 0-1.117.497-1.117 1.113S.81 51.3 1.427 51.3h13.286c.616 0 1.117-.5 1.117-1.116 0-.616-.5-1.113-1.117-1.113z" transform="translate(1.658)"/>
            <path fill="#B7C6DF" fill-rule="nonzero" d="M38.26 54.019H24.974c-.618 0-1.117.497-1.117 1.113s.5 1.116 1.117 1.116H38.26c.616 0 1.117-.5 1.117-1.116 0-.616-.5-1.113-1.117-1.113" transform="translate(1.658)"/>
            <path stroke="#FFF" stroke-width=".5" d="M38.26 54.019H24.974c-.618 0-1.117.497-1.117 1.113s.5 1.116 1.117 1.116H38.26c.616 0 1.117-.5 1.117-1.116 0-.616-.5-1.113-1.117-1.113z" transform="translate(1.658)"/>
            <path fill="#B7C6DF" fill-rule="nonzero" d="M47.047 44.733v-7.78h2.127c1.448 0 2.829.543 3.886 1.533l6.681 6.247H47.047zm7.539-7.873c-1.471-1.378-3.395-2.137-5.412-2.137H45.93c-.616 0-1.116.499-1.116 1.115v10.009c0 .616.5 1.116 1.116 1.116h16.638c.46 0 .871-.281 1.039-.707.168-.424.06-.91-.275-1.222l-8.746-8.174z" transform="translate(1.658)"/>
            <path stroke="#FFF" stroke-width=".5" d="M47.047 44.733v-7.78h2.127c1.448 0 2.829.543 3.886 1.533l6.681 6.247H47.047zm7.539-7.873c-1.471-1.378-3.395-2.137-5.412-2.137H45.93c-.616 0-1.116.499-1.116 1.115v10.009c0 .616.5 1.116 1.116 1.116h16.638c.46 0 .871-.281 1.039-.707.168-.424.06-.91-.275-1.222l-8.746-8.174z" transform="translate(1.658)"/>
            <path fill="#B7C6DF" fill-rule="nonzero" d="M16.077 60.029c-.872 0-1.581-.708-1.581-1.579 0-.87.709-1.579 1.581-1.579s1.58.71 1.58 1.579c0 .871-.708 1.579-1.58 1.579m0-5.387c-2.103 0-3.813 1.707-3.813 3.808 0 2.1 1.71 3.808 3.813 3.808s3.814-1.707 3.814-3.808c0-2.1-1.71-3.808-3.814-3.808" transform="translate(1.658)"/>
            <path stroke="#FFF" stroke-width=".5" d="M16.077 60.029c-.872 0-1.581-.708-1.581-1.579 0-.87.709-1.579 1.581-1.579s1.58.71 1.58 1.579c0 .871-.708 1.579-1.58 1.579zm0-5.387c-2.103 0-3.813 1.707-3.813 3.808 0 2.1 1.71 3.808 3.813 3.808s3.814-1.707 3.814-3.808c0-2.1-1.71-3.808-3.814-3.808z" transform="translate(1.658)"/>
            <path fill="#B7C6DF" fill-rule="nonzero" d="M69.255 60.029c-.87 0-1.581-.708-1.581-1.579 0-.87.71-1.579 1.581-1.579.873 0 1.58.71 1.58 1.579 0 .871-.707 1.579-1.58 1.579m0-5.387c-2.103 0-3.813 1.707-3.813 3.808 0 2.1 1.71 3.808 3.813 3.808s3.814-1.707 3.814-3.808c0-2.1-1.71-3.808-3.814-3.808" transform="translate(1.658)"/>
            <path stroke="#FFF" stroke-width=".5" d="M69.255 60.029c-.87 0-1.581-.708-1.581-1.579 0-.87.71-1.579 1.581-1.579.873 0 1.58.71 1.58 1.579 0 .871-.707 1.579-1.58 1.579zm0-5.387c-2.103 0-3.813 1.707-3.813 3.808 0 2.1 1.71 3.808 3.813 3.808s3.814-1.707 3.814-3.808c0-2.1-1.71-3.808-3.814-3.808z" transform="translate(1.658)"/>
            <path fill="#B7C6DF" fill-rule="nonzero" d="M90.131 61.551h-2.668v-1.85c0-3.794-.39-7.587-1.143-11.258 1.28-.267 2.54-.654 3.748-1.174l.063-.026v14.308zm0 3.33h-5.337v-.159c0-.058.033-.111.085-.137l1.761-.88c.348-.173.595-.472.724-.821h2.767v1.997zm-6.672-.159v.159h-3.174c-.094 0-.16-.067-.16-.159 0-.058.032-.111.083-.137l1.855-.927c.326-.163.57-.436.71-.775h2.53l-1.021.51c-.506.253-.823.761-.823 1.33zm-.666-15.84c.749-.025 1.49-.09 2.215-.199.74 3.61 1.122 7.313 1.122 11.017v1.851h-3.055l.292-1.467c.447-.215-.574-11.203-.574-11.203zm-1.266-3.774l5.185-5.178c.477-.474.751-1.132.751-1.803 0-.21-.035-.412-.083-.609.71.489 1.238 1.23 1.417 2.12l1.24 6.198-.497.21c-1.323.57-2.71.98-4.127 1.223-.897.166-1.825.246-2.762.272-.075-.34-.168-.675-.298-1-.202-.513-.48-.992-.826-1.433zm2.6-9.531c-1.471 0-2.668-1.195-2.668-2.664V31.58h5.337v1.333c0 1.469-1.197 2.664-2.67 2.664zm0-7.993c.711 0 1.383.277 1.887.776.503.507.782 1.179.782 1.888H81.46c0-1.469 1.197-2.664 2.668-2.664zm7.315 18.589c-.016-.155-.04-.31-.07-.464l-1.267-6.334c-.346-1.718-1.617-3.058-3.228-3.568.77-.729 1.253-1.756 1.253-2.894v-2.665c0-1.063-.414-2.066-1.173-2.831-.76-.751-1.764-1.164-2.83-1.164-2.207 0-4.002 1.791-4.002 3.995h-2.001v1.332h2.001v1.333c0 1.724 1.1 3.192 2.637 3.751l-4.665 4.656.7 1.08c.078.038.154.075.225.114l5.023-5.248c.314-.312.765-.444 1.215-.303.19.054.364.158.509.303.233.231.36.537.36.86 0 .321-.13.634-.36.863l-5.18 5.172c-.055-.044-1.064.845-1.064.845.215.157.42.33.609.526.213.22.402.453.565.7l.502 2.04.709 6.619c.193 2.159-.024 5.312-.024 5.312l-.332 2.146c-.012.052-.043.097-.087.118l-1.854.927c-.507.252-.823.76-.823 1.328 0 .822.67 1.491 1.495 1.491h9.846c.736 0 1.334-.597 1.334-1.332V46.632c0-.155-.008-.303-.023-.459z" transform="translate(1.658)"/>
        </g>
        <path fill="url(#prefix__a)" fill-rule="nonzero" d="M26.774 28.468l5.88 2.4c8.167 3.334 13.39 11.405 13.087 20.222-.282 8.184-6.998 14.673-15.187 14.673h-4.286c-10.475 0-18.967-8.492-18.967-18.967v-5.244c0-7.805 6.327-14.132 14.132-14.132 1.831 0 3.645.356 5.34 1.048z" opacity=".074"/>
    </g>
</svg>
