<svg xmlns="http://www.w3.org/2000/svg" width="36" height="36" viewBox="0 0 36 36">
    <g fill="none" fill-rule="evenodd">
        <rect width="36" height="36" fill="#FF371F" fill-opacity=".1" rx="14"/>
        <path d="M7.2 7.2h21.6v21.6H7.2z"/>
        <path fill="#FF371F" fill-rule="nonzero" d="M25.449 23.457l-1.738-2.953v-4.122c0-3.199-2.397-5.783-5.393-6.09v-.677c0-.369-.24-.615-.599-.615-.36 0-.599.246-.599.615v1.23c0 .37.24.616.6.616 2.636 0 4.793 2.214 4.793 4.921v4.306c0 .123 0 .246.06.308l1.258 2.153H11.548l1.258-2.153c.06-.123.06-.185.06-.308v-4.306c0-1.907 1.078-3.63 2.756-4.43.3-.122.42-.491.3-.799-.12-.307-.48-.43-.78-.307-2.096.984-3.415 3.198-3.415 5.536v4.122L9.99 23.457a.571.571 0 0 0 0 .615c.12.184.3.307.54.307h4.852a2.403 2.403 0 0 0 2.337 1.846c1.139 0 2.037-.8 2.337-1.846h4.853c.24 0 .42-.123.54-.307.06-.185.06-.43 0-.615zm-7.752 1.907c-.357 0-.714-.345-.867-.862h1.733c-.153.517-.51.862-.866.862z"/>
    </g>
</svg>
