<?xml version="1.0" encoding="utf-8"?>
<!-- Generator: Adobe Illustrator 24.0.1, SVG Export Plug-In . SVG Version: 6.00 Build 0)  -->
<svg version="1.1" id="Capa_1" xmlns="http://www.w3.org/2000/svg" xmlns:xlink="http://www.w3.org/1999/xlink" x="0px" y="0px"
	 viewBox="0 0 36 36" style="enable-background:new 0 0 36 36;" xml:space="preserve">
<style type="text/css">
	.st0{fill-rule:evenodd;clip-rule:evenodd;fill:#FF371F;fill-opacity:0.1;}
	.st1{fill:#FF371F;}
</style>
<title>ic_alert_list</title>
<desc>Created with Sketch.</desc>
<g id="Page-1">
	<g id="ic_panic_button-copy">
		<g id="ic_alert_list">
			<path id="Rectangle-Copy" class="st0" d="M14,0h8c7.7,0,14,6.3,14,14v8c0,7.7-6.3,14-14,14h-8C6.3,36,0,29.7,0,22v-8
				C0,6.3,6.3,0,14,0z"/>
			<g id="gesture-double-tap" transform="translate(11.000000, 8.000000)">
				<g id="Path">
					<path class="st1" d="M6,20.5c-0.5,0-1-0.2-1.4-0.6l-5.3-4.5l1.1-1.2c0.3-0.3,0.7-0.5,1.1-0.5h0.3l2.6,1.4V6
						c0-0.8,0.7-1.5,1.5-1.5S7.5,5.2,7.5,6v4l0.9,0.1l4.9,2.2c0.7,0.3,1.1,1,1.1,1.8v4.4c0,1.1-0.9,2-2,2H6z M0.8,15.3l4.5,3.9
						c0.2,0.2,0.4,0.3,0.7,0.3h6.5c0.5,0,1-0.5,1-1v-4.3c0-0.4-0.2-0.7-0.6-0.9l-4.9-2.2l-1.6-0.2V6c0-0.3-0.2-0.5-0.5-0.5
						S5.5,5.7,5.5,6v10.8l-3.9-2.1c-0.1,0-0.3,0.1-0.4,0.2L0.8,15.3z"/>
				</g>
				<path id="Path_1_" class="st1" d="M6,2c2.2,0,4,1.8,4,4c0,1.5-0.8,2.8-2,3.5V8.2C8.6,7.7,9,6.9,9,6c0-1.7-1.3-3-3-3S3,4.3,3,6
					c0,0.9,0.4,1.7,1,2.2v1.2C2.8,8.8,2,7.5,2,6C2,3.8,3.8,2,6,2L6,2z"/>
				<path id="Path_2_" class="st1" d="M6,0c3.3,0,6,2.7,6,6c0,1.7-0.7,3.2-1.8,4.3l-1-0.4C10.3,9,11,7.6,11,6c0-2.8-2.2-5-5-5
					S1,3.2,1,6c0,2.1,1.2,3.8,3,4.6v1.1C1.7,10.8,0,8.6,0,6C0,2.7,2.7,0,6,0z"/>
			</g>
		</g>
	</g>
</g>
</svg>
