<?xml version="1.0" encoding="UTF-8"?>
<svg width="130px" height="100px" viewBox="0 0 130 100" version="1.1" xmlns="http://www.w3.org/2000/svg" xmlns:xlink="http://www.w3.org/1999/xlink">
    <!-- Generator: Sketch 64 (93537) - https://sketch.com -->
    <title>ic_no_alerts</title>
    <desc>Created with Sketch.</desc>
    <defs>
        <linearGradient x1="50%" y1="58.3901978%" x2="97.2809289%" y2="32.2643883%" id="linearGradient-1">
            <stop stop-color="#FFFFFF" offset="0%"></stop>
            <stop stop-color="#4080F8" offset="100%"></stop>
        </linearGradient>
    </defs>
    <g id="ic_no_alerts" stroke="none" stroke-width="1" fill="none" fill-rule="evenodd">
        <g transform="translate(27.000000, 29.000000)">
            <g id="Group-6" transform="translate(9.000000, 7.000000) scale(-1, 1) translate(-9.000000, -7.000000) " fill="#253080" stroke="#253081" stroke-width="0.5">
                <path d="M7.56,12.3454545 L2.52,12.3454545 L7.92,6.49090909 C8.16,6.23636364 8.16,5.98181818 8.04,5.72727273 C7.92,5.47272727 7.68,5.34545455 7.44,5.34545455 L0.84,5.34545455 C0.48,5.34545455 0.24,5.6 0.24,5.98181818 C0.24,6.36363636 0.48,6.61818182 0.84,6.61818182 L6,6.61818182 L0.6,12.4727273 C0.36,12.7272727 0.36,12.9818182 0.48,13.2363636 C0.6,13.4909091 0.84,13.6181818 1.08,13.6181818 L7.68,13.6181818 C8.04,13.6181818 8.28,13.3636364 8.28,12.9818182 C8.28,12.6 7.92,12.3454545 7.56,12.3454545 Z" id="Path" transform="translate(4.260000, 9.481818) scale(-1, 1) translate(-4.260000, -9.481818) "></path>
                <path d="M17.16,8.90909091 L10.68,8.90909091 L17.64,1.52727273 C17.88,1.27272727 17.88,1.01818182 17.76,0.763636364 C17.64,0.509090909 17.4,0.381818182 17.16,0.381818182 L9.12,0.381818182 C8.76,0.381818182 8.52,0.636363636 8.52,1.01818182 C8.52,1.4 8.76,1.65454545 9.12,1.65454545 L15.6,1.65454545 L8.64,9.03636364 C8.4,9.29090909 8.4,9.54545455 8.52,9.8 C8.64,10.0545455 8.88,10.1818182 9.12,10.1818182 L17.16,10.1818182 C17.52,10.1818182 17.76,9.92727273 17.76,9.54545455 C17.76,9.29090909 17.52,8.90909091 17.16,8.90909091 Z" id="Path" transform="translate(13.140000, 5.281818) scale(-1, 1) translate(-13.140000, -5.281818) "></path>
            </g>
            <path d="M35.4699754,9.0803982 C35.4699754,9.0803982 35.3473899,9.20410163 35.4699754,9.0803982 C35.1022189,9.57521192 34.8570479,9.94632221 34.8570479,10.4411359 C34.3667059,13.5337217 31.0568975,16.6263074 24.8050371,19.7188932 C20.2693737,21.9455549 17.6950783,26.8936921 18.1854203,31.7181258 C17.5724928,31.5944224 16.8369798,31.5944224 16.2240523,31.8418293 C14.3852699,32.5840498 13.5271714,34.5633047 14.2626844,36.4188562 C14.9981973,38.2744076 16.9595653,39.1403316 18.7983477,38.398111 C19.4112752,38.1507042 20.0242027,37.6558905 20.3919592,37.1610767 C23.3340111,41.1195865 28.482602,42.9751379 33.3860219,41.4906968 C40.0056388,39.5114419 44.5413022,39.3877385 46.9930121,41.3669934 C47.7285251,41.9855105 48.8317946,42.1092139 50.180235,41.7381037 C51.0383335,41.4906968 52.7545305,40.8721796 53.2448725,40.0062556 C53.367458,39.7588488 53.367458,39.5114419 53.2448725,39.2640351 L52.9997015,38.7692213 C55.5739969,37.2847802 56.6772664,34.068491 55.5739969,31.2233121 C54.4707274,28.3781332 51.5286755,26.7699887 48.5866236,27.3885058 L40.9863227,7.71966047 C40.8637372,7.47225361 40.7411517,7.22484675 40.4959807,7.10114332 C39.6378823,6.73003303 37.7990998,7.47225361 37.0635868,7.8433639 C36.2054883,8.33817762 35.8377319,8.70928791 35.4699754,9.0803982 Z M16.1014668,35.800339 C15.8562958,35.0581184 16.2240523,34.1921944 16.9595653,33.8210841 C17.6950783,33.5736773 18.5531768,33.9447876 18.9209332,34.6870082 C19.1661042,35.4292287 18.7983477,36.2951527 18.0628348,36.666263 C17.2047363,36.9136699 16.3466378,36.5425596 16.1014668,35.800339 Z M53.4900434,31.9655327 C54.2255564,33.8210841 53.4900434,35.800339 52.0190175,36.9136699 L49.0769656,29.3677607 C51.0383335,29.1203538 52.877116,30.2336847 53.4900434,31.9655327 Z M39.1475403,9.20410163 L50.915748,39.3877385 C50.670577,39.5114419 50.180235,39.7588488 49.689893,39.8825522 C48.8317946,40.1299591 48.3414526,40.0062556 48.2188671,39.8825522 C45.1542296,37.4084836 40.1282243,37.2847802 32.7730944,39.6351453 C27.8696745,41.1195865 22.7210837,38.6455179 20.8823012,33.8210841 C19.0435187,29.1203538 21.2500577,23.6774029 25.7857211,21.4507412 C29.0955295,19.8425966 31.669825,18.234452 33.5086074,16.502604 L34.8570479,20.0900034 C35.1022189,20.5848172 35.5925609,20.832224 36.2054883,20.7085206 C36.8184158,20.5848172 36.9410013,19.9663 36.8184158,19.3477829 L35.1022189,14.8944594 C35.7151464,14.1522388 36.0829029,13.4100182 36.4506593,12.6677977 L40.1282243,22.0692583 C40.3733953,22.564072 40.8637372,22.8114789 41.4766647,22.6877755 C41.9670067,22.4403686 42.2121777,21.9455549 42.0895922,21.3270377 L37.6765143,10.0700256 C37.7990998,9.94632221 38.0442708,9.82261878 38.2894418,9.69891535 C38.4120273,9.45150849 38.9023693,9.32780506 39.1475403,9.20410163 Z" id="Shape" fill="#B7C6DF" fill-rule="nonzero"></path>
            <rect id="Rectangle-Copy" fill="#B7C6DF" x="67.5555556" y="41.7627119" width="8.444444" height="1.23728814" rx="0.618644068"></rect>
            <rect id="Rectangle" fill="#B7C6DF" x="13.4188034" y="41.7627119" width="48.547009" height="1.23728814" rx="0.618644068"></rect>
            <path d="M21.840442,21.6378059 L43.1877741,30.3519585 C46.3884133,31.6584852 48.8306036,34.336766 49.837068,37.6440508 C50.4904304,39.7910272 49.279617,42.0611503 47.1326407,42.7145126 C46.7537495,42.8298159 46.3600369,42.8891081 45.9639921,42.8905086 L28.543376,42.9521094 C20.6485063,42.9800264 13.8116606,37.4778743 12.1507286,29.7596458 C11.3201861,25.9001757 13.775617,22.0981693 17.635087,21.2676268 C19.0421721,20.9648277 20.5078931,21.0938487 21.840442,21.6378059 Z" id="Rectangle-25-Copy-3" fill="url(#linearGradient-1)" fill-rule="nonzero" opacity="0.073541"></path>
        </g>
    </g>
</svg>