<?xml version="1.0" encoding="UTF-8"?>
<svg width="24px" height="24px" viewBox="0 0 24 24" version="1.1" xmlns="http://www.w3.org/2000/svg" xmlns:xlink="http://www.w3.org/1999/xlink">
    <!-- Generator: Sketch 63.1 (92452) - https://sketch.com -->
    <title>ic_user</title>
    <desc>Created with Sketch.</desc>
    <g id="ic_user" stroke="none" stroke-width="1" fill="none" fill-rule="evenodd">
        <g id="Group-7" transform="translate(2.000000, 2.000000)" stroke="#757575">
            <g id="Group-5">
                <g id="ic/top-navigation/user" transform="translate(3.111111, 3.111111)" fill="#757575" fill-rule="nonzero" stroke-width="0.2">
                    <g id="Shape-Copy-4">
                        <path d="M8.95063131,7.04407407 C10.0421717,6.37320988 10.7594697,5.18395062 10.7594697,3.8117284 C10.7594697,1.70765432 9.01300505,0 6.86111111,0 C4.70921717,0 2.96275253,1.70765432 2.96275253,3.8117284 C2.96275253,5.15345679 3.68005051,6.34271605 4.77159091,7.04407407 C2.05833333,7.89790123 0.0623737374,10.3679012 0,13.2648148 C0,13.5087654 0.187121212,13.7222222 0.46780303,13.7222222 C0.71729798,13.7222222 0.935606061,13.5392593 0.935606061,13.2648148 C0.997979798,10.1544444 3.68005051,7.62345679 6.86111111,7.62345679 C10.0421717,7.62345679 12.7242424,10.1544444 12.7866162,13.2648148 C12.7866162,13.5087654 13.0049242,13.7222222 13.2544192,13.7222222 C13.2544192,13.7222222 13.2544192,13.7222222 13.2544192,13.7222222 C13.5039141,13.7222222 13.7222222,13.5087654 13.7222222,13.2648148 C13.6598485,10.3374074 11.632702,7.89790123 8.95063131,7.04407407 Z M3.89835859,3.8117284 C3.89835859,2.22604938 5.23939394,0.914814815 6.86111111,0.914814815 C8.48282828,0.914814815 9.82386364,2.22604938 9.82386364,3.8117284 C9.82386364,5.39740741 8.48282828,6.70864198 6.86111111,6.70864198 C5.23939394,6.70864198 3.89835859,5.39740741 3.89835859,3.8117284 Z" id="Shape-Copy-3"></path>
                    </g>
                </g>
                <circle id="Oval" stroke-width="1.3" cx="10" cy="10" r="10"></circle>
            </g>
        </g>
    </g>
</svg>